<?xml version="1.0" standalone="no"?>
<!DOCTYPE svg PUBLIC "-//W3C//DTD SVG 20010904//EN"
 "http://www.w3.org/TR/2001/REC-SVG-20010904/DTD/svg10.dtd">
<svg version="1.0" xmlns="http://www.w3.org/2000/svg"
 width="547.000000pt" height="571.000000pt" viewBox="0 0 547.000000 571.000000"
 preserveAspectRatio="xMidYMid meet">

<g transform="translate(0.000000,571.000000) scale(0.100000,-0.100000)"
fill="#000000" stroke="none">
<path d="M2632 5577 c-510 -564 -861 -1173 -1007 -1747 -52 -204 -67 -341 -72
-659 l-5 -293 -70 68 c-160 157 -236 343 -254 621 -11 165 -33 163 -126 -10
-312 -581 -486 -1228 -464 -1727 3 -80 9 -156 12 -170 9 -41 -34 42 -76 150
-295 742 -182 1600 293 2238 167 224 336 385 598 568 37 25 58 55 121 170 70
129 207 363 259 442 l21 32 -73 -26 c-446 -160 -880 -472 -1182 -850 -310
-386 -498 -810 -579 -1307 -18 -111 -22 -175 -22 -402 -1 -290 8 -380 60 -612
143 -647 530 -1228 1082 -1627 29 -21 55 -36 58 -34 2 3 -12 67 -31 143 -34
130 -36 150 -42 354 -6 209 -5 220 21 341 38 177 80 316 138 460 83 208 288
595 312 593 6 -1 17 -19 25 -40 26 -63 61 -107 112 -141 65 -43 84 -42 100 6
21 67 130 275 197 377 39 60 108 144 172 210 216 223 271 341 340 741 17 96
21 152 18 277 -2 86 -2 157 -1 157 3 0 190 -236 224 -283 72 -101 109 -151
257 -348 84 -112 164 -218 177 -235 30 -40 160 -297 178 -354 25 -77 45 -152
62 -235 20 -99 59 -207 96 -260 15 -23 58 -68 96 -100 288 -251 421 -404 509
-590 75 -159 94 -228 106 -385 17 -235 -1 -457 -53 -632 -17 -55 -28 -102 -26
-104 5 -5 164 105 252 175 99 78 303 279 397 391 267 317 471 733 562 1143 52
232 61 322 60 612 0 298 -14 416 -73 652 -234 926 -916 1653 -1826 1946 -144
46 -359 96 -370 86 -10 -10 13 -321 27 -369 13 -41 18 -46 58 -58 287 -85 494
-172 675 -284 492 -306 843 -763 1011 -1318 143 -473 125 -1027 -50 -1480
l-25 -65 -1 110 c-2 474 -136 972 -415 1540 -119 242 -224 425 -371 646 -119
178 -138 200 -158 178 -12 -12 -11 -32 10 -134 62 -313 88 -689 65 -945 -14
-160 -51 -381 -88 -534 l-27 -111 -13 100 c-28 226 -86 430 -170 603 -80 164
-166 268 -407 490 -189 175 -281 277 -350 392 -95 157 -166 373 -203 616 -25
165 -25 606 0 781 22 159 22 183 -1 183 -11 0 -65 -52 -130 -123z"/>
</g>
</svg>
